<svg version="1.1" id="diagram" xmlns="http://www.w3.org/2000/svg" xmlns:xlink="http://www.w3.org/1999/xlink" x="0px" y="0px" width="1280" height="500px" viewBox="0 0 1280 500" xml:space="preserve">
  <style type="text/css">
  .st0{fill:none;stroke:#000000;stroke-miterlimit:10;}
  .st1{fill:#FFFFFF;stroke:#000000;stroke-miterlimit:10;}

  </style>

  <g id="console" class="wow console_device">
    <rect x="791.4" y="21.5" class="st1" width="7.9" height="2"></rect>
    <rect x="745.8" y="21.5" class="st1" width="7.9" height="2"></rect>
    <g>
      <path class="st1" d="M753.4,23.2l3.1,0.7c0,0,11.6,1.1,15.9,1.1l-0.2,8.4H752L753.4,23.2z"></path>
      <path class="st1" d="M791.2,23.2l-3.1,0.7c0,0-11.6,1.1-15.9,1.1l0.2,8.4h20.3L791.2,23.2z"></path>
      <path class="st1" d="M773.2,47.5c0.5,0.1,1.7,0,3.2,1.2c1,0.8,1.4,1.9,1.8,3.1c0.3,0.7,1.5,1,3.4,1c2.4-0.1,4.6,1.5,5.1,3.9
      c0.7,2.8,2.3,6.7,6.1,9.2c7.6,4.9,19.6-43.5,4.7-41.5h-6.2c0,0-2.5,1.7-6.5,2.5c-4,0.8-12.5,0.5-12.5,0.5s-8.6,0.4-12.5-0.4
      c-4-0.8-6.5-2.6-6.5-2.6h-6.2c-14.9-2-2.9,46.4,4.7,41.5c3.8-2.5,5.5-6.2,6.1-8.9c0.6-2.4,2.7-4.1,5.1-4c1.8,0.1,3.1-0.3,3.4-1
      c0.4-1.1,0.9-2.3,1.8-3.1c1.5-1.1,2.7-1.1,3.2-1.2"></path>
      <circle class="st1" cx="753.4" cy="38.3" r="8.7"></circle>
      <circle class="st1" cx="791.4" cy="38.3" r="8.7"></circle>
      <polygon class="st1" points="754.6,36.8 753.3,38 752,36.8 752,32.5 754.6,32.5 		"></polygon>
      <polygon class="st1" points="752,39.8 753.3,38.7 754.6,39.8 754.6,44.2 752,44.2 		"></polygon>
      <polygon class="st1" points="754.8,39.6 753.7,38.3 754.8,37 759.1,37 759.1,39.6 		"></polygon>
      <polygon class="st1" points="751.8,37 752.9,38.3 751.8,39.6 747.4,39.6 747.4,37 		"></polygon>
      <circle class="st1" cx="762.8" cy="48.8" r="2.8"></circle>
      <circle class="st1" cx="781.8" cy="48.8" r="2.8"></circle>
      <path class="st1" d="M778.5,38.7h-12.1c-1.1,0-2.1-0.9-2.1-2.1v-1.1c0-1.1,0.9-2.1,2.1-2.1h12.1c1.1,0,2.1,0.9,2.1,2.1v1.1
      C780.5,37.8,779.6,38.7,778.5,38.7z"></path>
      <polygon class="st1" points="770.5,34.7 770.5,37.3 766.4,36 		"></polygon>
      <polygon class="st1" points="774.5,37.3 774.5,34.7 778.6,36 		"></polygon>
      <circle class="st1" cx="791.2" cy="34.5" r="2.1"></circle>
      <circle class="st1" cx="791.2" cy="42.1" r="2.1"></circle>
      <circle class="st1" cx="795" cy="38.3" r="2.1"></circle>
      <circle class="st1" cx="787.4" cy="38.3" r="2.1"></circle>
    </g>
  </g>
</svg>
